<?xml version="1.0" encoding="UTF-8"?>
<svg width="800px" height="800px" preserveAspectRatio="xMidYMid" version="1.1" viewBox="0 -24 256 256" xmlns="http://www.w3.org/2000/svg">
<path d="m100.43 115.19c0.9308-16.605 9.0622-31.235 21.329-41.605 12.03-10.186 28.223-16.412 45.89-16.412 17.65 0 33.843 6.2259 45.882 16.412 12.259 10.371 20.39 25 21.329 41.588 0.9308 17.062-5.9273 32.912-17.958 44.661-12.267 11.951-29.715 19.45-49.254 19.45s-37.021-7.4991-49.28-19.45c-12.039-11.749-18.88-27.599-17.94-44.643z" fill="#fff"></path>
<path d="m133.17 116.68c0.4776-8.5203 4.6499-16.027 10.944-21.348 6.1728-5.2266 14.481-8.4211 23.547-8.4211 9.0565 0 17.365 3.1945 23.542 8.4211 6.29 5.3212 10.462 12.828 10.944 21.339 0.4776 8.7546-3.0413 16.887-9.2142 22.916-6.2945 6.1323-15.247 9.9801-25.272 9.9801-10.025 0-18.996-3.8479-25.286-9.9801-6.1773-6.0286-9.6872-14.161-9.2051-22.907z" fill="#265787"></path>
<path d="m78.411 134.18c0.0587 3.3414 1.1243 9.8344 2.7228 14.905 3.3594 10.733 9.0578 20.662 16.987 29.413 8.1367 8.9946 18.156 16.219 29.729 21.349 12.164 5.3868 25.345 8.1321 39.035 8.1097 13.668-0.018199 26.848-2.8177 39.013-8.2452 11.573-5.1791 21.583-12.435 29.706-21.434 7.9244-8.7869 13.614-18.734 16.982-29.467 1.6933-5.4229 2.7634-10.927 3.1924-16.449 0.41993-5.441 0.24383-10.891-0.5283-16.337-1.5081-10.611-5.1791-20.567-10.832-29.643-5.1701-8.3398-11.835-15.641-19.759-21.787l0.018061-0.013546-79.971-61.404c-0.072245-0.054184-0.13094-0.11288-0.20771-0.16255-5.2468-4.0277-14.07-4.0141-19.84 0.022577-5.8338 4.0819-6.5021 10.832-1.3094 15.09l-0.022577 0.022577 33.355 27.124-101.66 0.10837h-0.13546c-8.4031 0.0090307-16.481 5.5223-18.079 12.489-1.6436 7.0981 4.0638 12.986 12.801 13.018l-0.013546 0.031608 51.529-0.099338-91.951 70.579c-0.1174 0.085792-0.24383 0.1761-0.3522 0.26189-8.674 6.6421-11.478 17.687-6.0144 24.676 5.5448 7.1072 17.334 7.1207 26.099 0.040638l50.184-41.072s-0.73149 5.5448-0.67279 8.8727zm128.95 18.567c-10.34 10.534-24.816 16.508-40.48 16.54-15.686 0.026999-30.163-5.8926-40.503-16.409-5.0527-5.1249-8.7643-11.022-11.054-17.303-2.2441-6.1725-3.1156-12.724-2.5376-19.335 0.54636-6.4615 2.4699-12.625 5.5403-18.201 3.0163-5.4816 7.1704-10.435 12.3-14.625 10.051-8.1908 22.848-12.625 36.231-12.643 13.397-0.018006 26.184 4.3754 36.245 12.539 5.1204 4.1722 9.27 9.1075 12.286 14.58 3.084 5.5719 4.994 11.713 5.5629 18.192 0.56893 6.6014-0.30253 13.144-2.5467 19.321-2.2938 6.2989-5.9919 12.196-11.045 17.343z" fill="#EA7600"></path>
</svg>
