<svg xmlns="http://www.w3.org/2000/svg" version="1" viewBox="0 0 128 128">
      <defs>
        <clipPath id="f">
          <path
            fill="none"
            stroke="#000"
            strokeWidth="1"
            d="M30 94l2 2 3 10 1-12 3 15V90l2 5 3 14V90l2 2 3 17 3-23 6.616 25.92L59 96l2-6 2 25 6-25 2 21 5-22 5 24 1-18 3-6 1 23 5-22 3 10 1-9 3 6V78l-3 8-1-17-2 13-2-4-1-14-5 19-1-4-3-30-3 26-2 8-4-27-4 23-2 6-1-41.305L58 90l-6-42-3 36-2-4-2-24-1 24-3 7-2-24-2 19-3-5v14l-4-15v18z"
          ></path>
        </clipPath>
        <filter
          id="c"
          width="1.2"
          height="1.184"
          x="-0.1"
          y="-0.092"
          colorInterpolationFilters="sRGB"
        >
          <feGaussianBlur stdDeviation="2.92"></feGaussianBlur>
        </filter>
        <filter id="b" colorInterpolationFilters="sRGB">
          <feGaussianBlur stdDeviation="1.337"></feGaussianBlur>
        </filter>
        <filter id="a" colorInterpolationFilters="sRGB">
          <feGaussianBlur stdDeviation="0.353"></feGaussianBlur>
        </filter>
        <filter id="e" colorInterpolationFilters="sRGB">
          <feGaussianBlur stdDeviation="3.589"></feGaussianBlur>
        </filter>
        <clipPath id="g">
          <path d="M64 6.875c-13.263 0-25.359 4.14-34.281 11.094S15 34.87 15 45.938v4C6.141 54.427 0 66.201 0 80c0 17.664 10.049 32 23 32V45.938c0-8.288 4.29-15.916 11.656-21.656S52.424 14.876 64 14.876c11.575 0 21.977 3.666 29.344 9.406C100.71 30.022 105 37.65 105 45.938V112c12.951 0 23-14.336 23-32 0-13.8-6.141-25.574-15-30.062v-4c0-11.067-5.796-21.016-14.719-27.969C89.358 11.016 77.263 6.875 64 6.875zM26 49v63c2 0 4-1 5-3V51c-1-1-3-2-5-2zm76 0c-2 0-4 1-5 2v58c1 2 3 3 5 3V49z"></path>
        </clipPath>
        <filter id="d" colorInterpolationFilters="sRGB">
          <feGaussianBlur stdDeviation="0.798"></feGaussianBlur>
        </filter>
      </defs>
      <path
        fill="#f3e517"
        fillRule="evenodd"
        d="M61.156 42.25c-2.294 5.742-4.504 15.245-7.173 4.313-2.002-7.765-6.28 4.866-9.39 7.03-6.273 4.77-9.745 11.489-12.53 18.689C24.684 66.008 27.453 76.077 27 81c.402 7.38-.8 15.451.594 22.405 5.854 5.102 10.09 13.154 18.802 13.05 5.96 2.072 5.213-6.94 10.617.538 4.973 6.816 8.044 2.831 11.29-.522 4.743 7.26 6.196-8.687 10.197-1.534 6.184 2.406 11.729 3.552 12.744-4.61C92.514 103.88 103.597 103.75 101 96c-.362-8.041.72-16.656-.531-24.344-4.198-3.276-7.436-10.841-12.22-11.5-5.917 2.871-3.637-9.79-6.072-13.516-.796-9.786-2.892-5.361-5.17 1.35-1.262 9.66-6.562 5.055-9.27-1.268-2.408-2.025-5.153-12.724-6.581-4.472z"
        filter="url(#c)"
        transform="translate(0 .272)"
      ></path>
      <g filter="url(#a)" transform="translate(0 .272)">
        <g fillRule="evenodd" clipPath="url(#f)">
          <path fill="#ff7901" d="M28 116V43h72v73H28z"></path>
          <path
            fill="#ff0101"
            d="M29 80l8 5 3-9 5 6 6-10 2 12 2-8 3 6 1-6s3 8 3 7 4-15 4-15l4 13 6-12 3 13 5-9 3 9 5-5 6 6v8l-4 3-6-2-4-2-1 10-2-10-4 9-6-9-2 9-4-6-5 13-3-15-6 3-4-6-2 10-4-5-4 5-2-3-6 1V80z"
            filter="url(#b)"
          ></path>
        </g>
      </g>
      <g clipPath="url(#g)" transform="translate(0 .272)">
        <path d="M64 6.875c-13.263 0-25.359 4.14-34.281 11.094S15 34.87 15 45.938v4C6.141 54.427 0 66.201 0 80c0 17.664 10.049 32 23 32V45.938c0-8.288 4.29-15.916 11.656-21.656S52.424 14.876 64 14.876c11.575 0 21.977 3.666 29.344 9.406C100.71 30.022 105 37.65 105 45.938V112c12.951 0 23-14.336 23-32 0-13.8-6.141-25.574-15-30.062v-4c0-11.067-5.796-21.016-14.719-27.969C89.358 11.016 77.263 6.875 64 6.875zM26 49v63c2 0 4-1 5-3V51c-1-1-3-2-5-2zm76 0c-2 0-4 1-5 2v58c1 2 3 3 5 3V49z"></path>
        <path
          fill="#00c"
          d="M60 4.875c-13.263 0-25.359 4.14-34.281 11.094S9 32.87 9 43.938v2C.141 50.427-9 62.201-9 76c0 17.664 12.049 28 25 28V56c18.213-76.721 3-2.538 3-4 0-12 7.61-26.021 14-31 7.366-5.74 15.425-9 27-9s21.977 2.541 29.344 8.281C96.71 26.021 101 33.65 101 41.937V110c1.122 0 1.94-2.778 3-3 11.176-2.338 19-14.866 19-31 0-13.8-4.141-21.512-13-26l-1-8.062c0-11.067-5.796-21.016-14.719-27.97C85.358 7.016 73.263 4.875 60 4.875zM25 45l-2 62c2 0 7-1 8-3V47c-1-1-4-2-6-2zm74 0c-2 0-4 1-5 2v58c1 2 3 4 5 4V45z"
          filter="url(#e)"
        ></path>
      </g>
      <path
        fill="#fff"
        fillRule="evenodd"
        d="M16 56c-6.766 2.198-9.77 11.404-9.77 19.404C6.23 67.404 14.774 60 16 56zm21.77-39.319C25.323 23.478 22.763 29.625 20 36c4.981-7.068 9.634-14.355 17.77-19.319zm-9.991 33.02l.272 2.587-1.906-2.042.272-1.362 1.362.817zm81.295.817l4.085 6.4-1.498 1.362-2.587-7.762z"
        filter="url(#d)"
        transform="translate(0 .272)"
      ></path>
    </svg>