<svg xmlns="http://www.w3.org/2000/svg" version="1.1" xmlns:xlink="http://www.w3.org/1999/xlink" xmlns:svgjs="http://svgjs.dev/svgjs" width="1500" height="939" viewBox="0 0 1500 939"><g transform="matrix(1,0,0,1,-0.9090909090909918,-1.5145161290323017)"><svg viewBox="0 0 396 248" data-background-color="#ffffff" preserveAspectRatio="xMidYMid meet" height="939" width="1500" xmlns="http://www.w3.org/2000/svg" xmlns:xlink="http://www.w3.org/1999/xlink"><g id="tight-bounds" transform="matrix(1,0,0,1,0.2400000000000091,0.4000000000000057)"><svg viewBox="0 0 395.52 247.2" height="247.2" width="395.52"><g><svg></svg></g><g><svg viewBox="0 0 395.52 247.2" height="247.2" width="395.52"><g transform="matrix(1,0,0,1,75.54432,49.12239559881506)"><svg viewBox="0 0 244.43135999999998 148.95520880236987" height="148.95520880236987" width="244.43135999999998"><g><svg viewBox="0 0 244.43135999999998 148.95520880236987" height="148.95520880236987" width="244.43135999999998"><g><svg viewBox="0 0 244.43135999999998 148.95520880236987" height="148.95520880236987" width="244.43135999999998"><g><svg viewBox="0 0 244.43135999999998 148.95520880236987" height="148.95520880236987" width="244.43135999999998"><g id="textblocktransform"><svg viewBox="0 0 244.43135999999998 148.95520880236987" height="148.95520880236987" width="244.43135999999998" id="textblock"><g><svg viewBox="0 0 244.43135999999998 148.95520880236987" height="148.95520880236987" width="244.43135999999998"><g transform="matrix(1,0,0,1,0,0)"><svg width="244.43135999999998" viewBox="1.95 -34.35 57.69 35.160000000000004" height="148.95520880236987" data-palette-color="#556970"><path d="M26.49-9.25L29.39-9.25 29.39-1.15Q29.27-1.1 27.84-0.61 26.42-0.12 24.19 0.34 21.97 0.81 19.41 0.81L19.41 0.81Q15.21 0.81 11.96-0.65 8.72-2.1 6.48-4.59 4.25-7.08 3.1-10.24 1.95-13.4 1.95-16.85L1.95-16.85Q1.95-22.02 4.15-25.96 6.35-29.91 10.29-32.13 14.23-34.35 19.46-34.35L19.46-34.35Q21.9-34.35 24.13-33.84 26.37-33.33 29.39-32.4L29.39-32.4 29.39-24.56 26.39-24.56 25.66-29.1Q25.56-29.52 25.29-29.83 25.02-30.15 24.8-30.25L24.8-30.25 24.61-30.35Q23.97-30.64 22.71-31.09 21.44-31.54 19.7-31.54L19.7-31.54Q16.31-31.54 13.59-29.87 10.86-28.2 9.28-24.93 7.69-21.66 7.69-16.85L7.69-16.85Q7.69-9.86 11.06-5.91 14.43-1.95 20.36-1.95L20.36-1.95Q22.12-1.95 23.22-2.37 24.32-2.78 24.39-2.81L24.39-2.81Q25.17-3.1 25.34-3.81L25.34-3.81 26.49-9.25ZM59.64-9.91L59.64-9.91Q59.64-6.88 58.42-4.94 57.2-3 55.26-1.92 53.32-0.83 51.12-0.42 48.92 0 46.95 0L46.95 0 32.96 0 32.96-2.15 35.59-2.34Q36.13-2.39 36.39-2.73 36.64-3.08 36.64-3.44L36.64-3.44 36.64-30.1Q36.64-30.47 36.39-30.82 36.13-31.18 35.59-31.2L35.59-31.2 32.96-31.4 32.96-33.54 46.34-33.54Q52.32-33.54 54.95-31.4 57.59-29.25 57.59-25.49L57.59-25.49Q57.59-23 56.41-21.44 55.22-19.87 53.55-19.03 51.88-18.19 50.39-17.8L50.39-17.8Q52.63-17.8 54.76-17.05 56.88-16.31 58.26-14.59 59.64-12.87 59.64-9.91ZM52.19-25.15L52.19-25.15Q52.19-28.08 50.28-29.66 48.36-31.25 44.5-31.25L44.5-31.25Q43.72-31.25 42.82-31.18 41.92-31.1 41.65-31.1L41.65-31.1 41.65-18.46Q41.65-18.46 42.34-18.43 43.04-18.41 43.45-18.41L43.45-18.41Q48.34-18.41 50.27-20.17 52.19-21.92 52.19-25.15ZM54.2-9.5L54.2-9.5Q54.2-12.92 52.16-14.5 50.12-16.09 46.14-16.09L46.14-16.09Q45.33-16.09 44.33-16.02 43.33-15.94 42.56-15.87 41.79-15.8 41.65-15.8L41.65-15.8 41.65-2.59Q41.65-2.59 42.22-2.55 42.8-2.51 43.54-2.48 44.28-2.44 44.75-2.44L44.75-2.44Q50-2.44 52.1-4.2 54.2-5.96 54.2-9.5Z" opacity="1" transform="matrix(1,0,0,1,0,0)" fill="#556970" class="wordmark-text-0" data-fill-palette-color="primary" id="text-0"></path></svg></g></svg></g></svg></g></svg></g></svg></g></svg></g></svg></g><g><path d="M245.816 0c68.262 0 123.6 55.338 123.6 123.6 0 68.262-55.338 123.6-123.6 123.6-31.693 0-60.599-11.928-82.476-31.54h10.448c19.85 15.552 44.856 24.824 72.028 24.824 64.553 0 116.884-52.331 116.883-116.884 0-64.553-52.331-116.884-116.883-116.884-27.172 0-52.178 9.272-72.028 24.824l-10.448 0c21.876-19.612 50.783-31.54 82.476-31.54z" fill="#556970" stroke="transparent" data-fill-palette-color="tertiary"></path></g></svg></g><defs></defs></svg><rect width="395.52" height="247.2" fill="none" stroke="none" visibility="hidden"></rect></g></svg></g></svg>